{
  "accessors": [
    {
      "bufferView": 2,
      "componentType": 5126,
      "count": 990,
      "max": [
        1.8256020545959473,
        1.624725580215454,
        1.8256020545959473
      ],
      "min": [
        -1.8256020545959473,
        -1.624725580215454,
        1.1920928955078125e-07
      ],
      "type": "VEC3"
    },
    {
      "bufferView": 2,
      "byteOffset": 11880,
      "componentType": 5126,
      "count": 990,
      "max": [
        0.9951847195625305,
        0.9961804151535034,
        1.0
      ],
      "min": [
        -0.9951847195625305,
        -0.9961804151535034,
        0.08731904625892639
      ],
      "type": "VEC3"
    },
    {
      "bufferView": 1,
      "componentType": 5126,
      "count": 990,
      "max": [
        1.000000238418579,
        1.0
      ],
      "min": [
        0.0,
        0.5
      ],
      "type": "VEC2"
    },
    {
      "bufferView": 0,
      "componentType": 5125,
      "count": 1440,
      "type": "SCALAR"
    },
    {
      "bufferView": 2,
      "byteOffset": 23760,
      "componentType": 5126,
      "count": 990,
      "max": [
        1.8256020545959473,
        1.624725580215454,
        1.8256020545959473
      ],
      "min": [
        -1.8256020545959473,
        -1.624725580215454,
        1.1920928955078125e-07
      ],
      "type": "VEC3"
    },
    {
      "bufferView": 2,
      "byteOffset": 35640,
      "componentType": 5126,
      "count": 990,
      "max": [
        0.9951847195625305,
        0.9961804151535034,
        1.0
      ],
      "min": [
        -0.9951847195625305,
        -0.9961804151535034,
        0.08731904625892639
      ],
      "type": "VEC3"
    },
    {
      "bufferView": 1,
      "byteOffset": 7920,
      "componentType": 5126,
      "count": 990,
      "max": [
        1.000000238418579,
        1.0
      ],
      "min": [
        0.0,
        0.5
      ],
      "type": "VEC2"
    },
    {
      "bufferView": 0,
      "byteOffset": 5760,
      "componentType": 5125,
      "count": 1440,
      "type": "SCALAR"
    },
    {
      "bufferView": 2,
      "byteOffset": 47520,
      "componentType": 5126,
      "count": 65532,
      "max": [
        0.4405209720134735,
        1.335554838180542,
        1.1439707279205322
      ],
      "min": [
        -13.332450866699219,
        -5.865097522735596,
        -1.9368871450424194
      ],
      "type": "VEC3"
    },
    {
      "bufferView": 2,
      "byteOffset": 833904,
      "componentType": 5126,
      "count": 65532,
      "max": [
        0.9998933672904968,
        0.9995321035385132,
        0.9999909996986389
      ],
      "min": [
        -0.9999693632125854,
        -0.9990861415863037,
        -0.9998723268508911
      ],
      "type": "VEC3"
    },
    {
      "bufferView": 1,
      "byteOffset": 15840,
      "componentType": 5126,
      "count": 65532,
      "max": [
        0.9234403371810913,
        0.9336311221122742
      ],
      "min": [
        0.04072494059801102,
        0.08501540124416351
      ],
      "type": "VEC2"
    },
    {
      "bufferView": 0,
      "byteOffset": 11520,
      "componentType": 5125,
      "count": 65532,
      "type": "SCALAR"
    },
    {
      "bufferView": 2,
      "byteOffset": 1620288,
      "componentType": 5126,
      "count": 55428,
      "max": [
        0.015585333108901978,
        2.3382272720336914,
        1.1230452060699463
      ],
      "min": [
        -14.577990531921387,
        -4.901458263397217,
        -1.9368858337402344
      ],
      "type": "VEC3"
    },
    {
      "bufferView": 2,
      "byteOffset": 2285424,
      "componentType": 5126,
      "count": 55428,
      "max": [
        0.9999421238899231,
        0.9997339844703674,
        0.9999909996986389
      ],
      "min": [
        -0.9999016523361206,
        -0.997300922870636,
        -0.9999301433563232
      ],
      "type": "VEC3"
    },
    {
      "bufferView": 1,
      "byteOffset": 540096,
      "componentType": 5126,
      "count": 55428,
      "max": [
        0.9234403371810913,
        0.9336311221122742
      ],
      "min": [
        0.04072494059801102,
        0.08501540124416351
      ],
      "type": "VEC2"
    },
    {
      "bufferView": 0,
      "byteOffset": 273648,
      "componentType": 5125,
      "count": 55428,
      "type": "SCALAR"
    },
    {
      "bufferView": 2,
      "byteOffset": 2950560,
      "componentType": 5126,
      "count": 65532,
      "max": [
        -0.177128404378891,
        0.14719873666763306,
        1.5865144729614258
      ],
      "min": [
        -12.691871643066406,
        -8.455795288085938,
        -2.41367769241333
      ],
      "type": "VEC3"
    },
    {
      "bufferView": 2,
      "byteOffset": 3736944,
      "componentType": 5126,
      "count": 65532,
      "max": [
        0.9999944567680359,
        0.9989845752716064,
        0.9995955228805542
      ],
      "min": [
        -0.9999170303344727,
        -0.9998550415039063,
        -0.9999560713768005
      ],
      "type": "VEC3"
    },
    {
      "bufferView": 1,
      "byteOffset": 983520,
      "componentType": 5126,
      "count": 65532,
      "max": [
        0.9234403371810913,
        0.9336311221122742
      ],
      "min": [
        0.04072494059801102,
        0.08501540124416351
      ],
      "type": "VEC2"
    },
    {
      "bufferView": 0,
      "byteOffset": 495360,
      "componentType": 5125,
      "count": 65532,
      "type": "SCALAR"
    },
    {
      "bufferView": 2,
      "byteOffset": 4523328,
      "componentType": 5126,
      "count": 65532,
      "max": [
        1.6517869234085083,
        0.16079774498939514,
        1.5865159034729004
      ],
      "min": [
        -13.911321640014648,
        -8.59061336517334,
        -2.857558488845825
      ],
      "type": "VEC3"
    },
    {
      "bufferView": 2,
      "byteOffset": 5309712,
      "componentType": 5126,
      "count": 65532,
      "max": [
        0.9985622763633728,
        0.9998925924301147,
        0.9997889995574951
      ],
      "min": [
        -0.9998448491096497,
        -0.9999279379844666,
        -0.9997161030769348
      ],
      "type": "VEC3"
    },
    {
      "bufferView": 1,
      "byteOffset": 1507776,
      "componentType": 5126,
      "count": 65532,
      "max": [
        0.9234403371810913,
        0.9336311221122742
      ],
      "min": [
        0.04072494059801102,
        0.08501540124416351
      ],
      "type": "VEC2"
    },
    {
      "bufferView": 0,
      "byteOffset": 757488,
      "componentType": 5125,
      "count": 65532,
      "type": "SCALAR"
    },
    {
      "bufferView": 2,
      "byteOffset": 6096096,
      "componentType": 5126,
      "count": 2856,
      "max": [
        -1.5193238258361816,
        -1.3922367095947266,
        1.1933695077896118
      ],
      "min": [
        -2.9266536235809326,
        -2.869560956954956,
        0.34428170323371887
      ],
      "type": "VEC3"
    },
    {
      "bufferView": 2,
      "byteOffset": 6130368,
      "componentType": 5126,
      "count": 2856,
      "max": [
        0.9984064102172852,
        0.9905226230621338,
        0.9973737597465515
      ],
      "min": [
        -0.9926155805587769,
        -0.9997853636741638,
        -0.994613766670227
      ],
      "type": "VEC3"
    },
    {
      "bufferView": 1,
      "byteOffset": 2032032,
      "componentType": 5126,
      "count": 2856,
      "max": [
        0.9234403371810913,
        0.9336311221122742
      ],
      "min": [
        0.04072494059801102,
        0.08501540124416351
      ],
      "type": "VEC2"
    },
    {
      "bufferView": 0,
      "byteOffset": 1019616,
      "componentType": 5125,
      "count": 2856,
      "type": "SCALAR"
    },
    {
      "bufferView": 2,
      "byteOffset": 6164640,
      "componentType": 5126,
      "count": 60476,
      "max": [
        26.081218719482422,
        79.26780700683594,
        52.48194122314453
      ],
      "min": [
        -26.081218719482422,
        -79.45194244384766,
        5.645421981811523
      ],
      "type": "VEC3"
    },
    {
      "bufferView": 2,
      "byteOffset": 6890352,
      "componentType": 5126,
      "count": 60476,
      "max": [
        0.9999956488609314,
        0.9999982118606567,
        0.99993896484375
      ],
      "min": [
        -0.9999956488609314,
        -0.9992004036903381,
        -0.9999774098396301
      ],
      "type": "VEC3"
    },
    {
      "bufferView": 1,
      "byteOffset": 2054880,
      "componentType": 5126,
      "count": 60476,
      "max": [
        0.9721765518188477,
        0.6734294295310974
      ],
      "min": [
        0.03605851158499718,
        0.10801592469215393
      ],
      "type": "VEC2"
    },
    {
      "bufferView": 0,
      "byteOffset": 1031040,
      "componentType": 5125,
      "count": 60480,
      "type": "SCALAR"
    }
  ],
  "asset": {
    "extras": {
      "author": "cebraVFX (https://sketchfab.com/intervirtual)",
      "license": "CC-BY-4.0 (http://creativecommons.org/licenses/by/4.0/)",
      "source": "https://sketchfab.com/3d-models/tiger-shark-8a19770317984b4a9628934acd587a67",
      "title": "Tiger Shark"
    },
    "generator": "Sketchfab-12.68.0",
    "version": "2.0"
  },
  "bufferViews": [
    {
      "buffer": 0,
      "byteLength": 1272960,
      "name": "floatBufferViews",
      "target": 34963
    },
    {
      "buffer": 0,
      "byteLength": 2538688,
      "byteOffset": 1272960,
      "byteStride": 8,
      "name": "floatBufferViews",
      "target": 34962
    },
    {
      "buffer": 0,
      "byteLength": 7616064,
      "byteOffset": 3811648,
      "byteStride": 12,
      "name": "floatBufferViews",
      "target": 34962
    }
  ],
  "buffers": [
    {
      "byteLength": 11427712,
      "uri": "scene.bin"
    }
  ],
  "extensionsUsed": [
    "KHR_materials_clearcoat"
  ],
  "images": [
    {
      "uri": "textures/02_-_Default_baseColor.png"
    }
  ],
  "materials": [
    {
      "doubleSided": true,
      "name": "material",
      "pbrMetallicRoughness": {
        "baseColorFactor": [
          0.0117647,
          0.0117647,
          0.0117647,
          1.0
        ],
        "metallicFactor": 0.0,
        "roughnessFactor": 0.2
      }
    },
    {
      "doubleSided": true,
      "name": "Tooth",
      "pbrMetallicRoughness": {
        "baseColorFactor": [
          0.901961,
          0.890196,
          0.847059,
          1.0
        ],
        "metallicFactor": 0.0,
        "roughnessFactor": 0.2
      }
    },
    {
      "doubleSided": true,
      "extensions": {
        "KHR_materials_clearcoat": {
          "clearcoatFactor": 0.5504954268292683,
          "clearcoatRoughnessFactor": 0.04
        }
      },
      "name": "02_-_Default",
      "pbrMetallicRoughness": {
        "baseColorTexture": {
          "index": 0
        },
        "metallicFactor": 0.6724466463414634,
        "roughnessFactor": 0.2
      }
    }
  ],
  "meshes": [
    {
      "name": "Object_0",
      "primitives": [
        {
          "attributes": {
            "NORMAL": 1,
            "POSITION": 0,
            "TEXCOORD_0": 2
          },
          "indices": 3,
          "material": 0,
          "mode": 4
        }
      ]
    },
    {
      "name": "Object_1",
      "primitives": [
        {
          "attributes": {
            "NORMAL": 5,
            "POSITION": 4,
            "TEXCOORD_0": 6
          },
          "indices": 7,
          "material": 0,
          "mode": 4
        }
      ]
    },
    {
      "name": "Object_2",
      "primitives": [
        {
          "attributes": {
            "NORMAL": 9,
            "POSITION": 8,
            "TEXCOORD_0": 10
          },
          "indices": 11,
          "material": 1,
          "mode": 4
        }
      ]
    },
    {
      "name": "Object_3",
      "primitives": [
        {
          "attributes": {
            "NORMAL": 13,
            "POSITION": 12,
            "TEXCOORD_0": 14
          },
          "indices": 15,
          "material": 1,
          "mode": 4
        }
      ]
    },
    {
      "name": "Object_4",
      "primitives": [
        {
          "attributes": {
            "NORMAL": 17,
            "POSITION": 16,
            "TEXCOORD_0": 18
          },
          "indices": 19,
          "material": 1,
          "mode": 4
        }
      ]
    },
    {
      "name": "Object_5",
      "primitives": [
        {
          "attributes": {
            "NORMAL": 21,
            "POSITION": 20,
            "TEXCOORD_0": 22
          },
          "indices": 23,
          "material": 1,
          "mode": 4
        }
      ]
    },
    {
      "name": "Object_6",
      "primitives": [
        {
          "attributes": {
            "NORMAL": 25,
            "POSITION": 24,
            "TEXCOORD_0": 26
          },
          "indices": 27,
          "material": 1,
          "mode": 4
        }
      ]
    },
    {
      "name": "Object_7",
      "primitives": [
        {
          "attributes": {
            "NORMAL": 29,
            "POSITION": 28,
            "TEXCOORD_0": 30
          },
          "indices": 31,
          "material": 2,
          "mode": 4
        }
      ]
    }
  ],
  "nodes": [
    {
      "children": [
        1
      ],
      "matrix": [
        1.0,
        0.0,
        0.0,
        0.0,
        0.0,
        2.220446049250313e-16,
        -1.0,
        0.0,
        0.0,
        1.0,
        2.220446049250313e-16,
        0.0,
        0.0,
        0.0,
        0.0,
        1.0
      ],
      "name": "Sketchfab_model"
    },
    {
      "children": [
        2
      ],
      "matrix": [
        1.0,
        0.0,
        0.0,
        0.0,
        0.0,
        0.0,
        1.0,
        0.0,
        0.0,
        -1.0,
        0.0,
        0.0,
        0.0,
        0.0,
        0.0,
        1.0
      ],
      "name": "881f997c4ad14e90a194d1af740d4711.fbx"
    },
    {
      "children": [
        3
      ],
      "name": "Object_2"
    },
    {
      "children": [
        4,
        7,
        10,
        14,
        19
      ],
      "name": "RootNode"
    },
    {
      "children": [
        5
      ],
      "name": "Eye_01",
      "rotation": [
        1.7691000664399326e-08,
        0.587194561958313,
        -1.2833544005275144e-08,
        0.809445858001709
      ],
      "translation": [
        9.551694869995117,
        29.561914443969727,
        70.1655502319336
      ]
    },
    {
      "children": [
        6
      ],
      "matrix": [
        1.0,
        0.0,
        -0.0,
        0.0,
        0.0,
        1.0,
        0.0,
        0.0,
        0.0,
        0.0,
        1.0,
        0.0,
        2.2649765014648438e-06,
        -3.98998274420137e-08,
        -0.9128016233444214,
        1.0
      ],
      "name": "Object_5"
    },
    {
      "mesh": 0,
      "name": "Object_6"
    },
    {
      "children": [
        8
      ],
      "name": "Eye_02",
      "rotation": [
        0.8094457983970642,
        1.2833540452561465e-08,
        0.587194561958313,
        -1.7691000664399326e-08
      ],
      "scale": [
        -1.0,
        -1.0,
        -1.0
      ],
      "translation": [
        -9.552000045776367,
        29.561914443969727,
        70.16600036621094
      ]
    },
    {
      "children": [
        9
      ],
      "matrix": [
        1.0,
        0.0,
        -0.0,
        0.0,
        0.0,
        1.0,
        0.0,
        0.0,
        0.0,
        0.0,
        1.0,
        0.0,
        2.3245811462402344e-06,
        -3.9899820336586345e-08,
        -0.9128015637397766,
        1.0
      ],
      "name": "Object_8"
    },
    {
      "mesh": 1,
      "name": "Object_9"
    },
    {
      "children": [
        11
      ],
      "name": "Tooth_Bottom",
      "rotation": [
        -0.7071068286895752,
        -0.0,
        0.0,
        0.7071068286895752
      ],
      "translation": [
        0.0030837059020996094,
        22.91826820373535,
        67.15794372558594
      ]
    },
    {
      "children": [
        12,
        13
      ],
      "matrix": [
        1.0,
        0.0,
        -0.0,
        0.0,
        0.0,
        1.0,
        0.0,
        0.0,
        0.0,
        0.0,
        1.0,
        0.0,
        7.068734645843506,
        1.7634353637695313,
        0.3964576721191406,
        1.0
      ],
      "name": "Object_11"
    },
    {
      "mesh": 2,
      "name": "Object_12"
    },
    {
      "mesh": 3,
      "name": "Object_13"
    },
    {
      "children": [
        15
      ],
      "name": "Tooth_Top",
      "rotation": [
        -0.7071067690849304,
        2.7021174756953386e-15,
        6.181723932741079e-08,
        0.7071068286895752
      ],
      "translation": [
        0.010652542114257813,
        26.7054386138916,
        67.69302368164063
      ]
    },
    {
      "children": [
        16,
        17,
        18
      ],
      "matrix": [
        1.0,
        0.0,
        -0.0,
        0.0,
        0.0,
        1.0,
        0.0,
        0.0,
        0.0,
        0.0,
        1.0,
        0.0,
        6.129767417907715,
        4.214904308319092,
        0.6355219483375549,
        1.0
      ],
      "name": "Object_15"
    },
    {
      "mesh": 4,
      "name": "Object_16"
    },
    {
      "mesh": 5,
      "name": "Object_17"
    },
    {
      "mesh": 6,
      "name": "Object_18"
    },
    {
      "children": [
        20
      ],
      "name": "TigerShark_001",
      "rotation": [
        -0.7071068286895752,
        -0.0,
        0.0,
        0.7071068286895752
      ],
      "translation": [
        1.9073486328125e-06,
        0.0,
        0.0
      ]
    },
    {
      "mesh": 7,
      "name": "Object_20"
    }
  ],
  "samplers": [
    {
      "magFilter": 9729,
      "minFilter": 9987,
      "wrapS": 10497,
      "wrapT": 10497
    }
  ],
  "scene": 0,
  "scenes": [
    {
      "name": "Sketchfab_Scene",
      "nodes": [
        0
      ]
    }
  ],
  "textures": [
    {
      "sampler": 0,
      "source": 0
    }
  ]
}
