{
  "accessors": [
    {
      "bufferView": 2,
      "componentType": 5126,
      "count": 3243,
      "max": [
        0.5382580161094666,
        0.4052090048789978,
        1.0
      ],
      "min": [
        -0.5382580161094666,
        -0.4052090048789978,
        -1.0
      ],
      "type": "VEC3"
    },
    {
      "bufferView": 2,
      "byteOffset": 38916,
      "componentType": 5126,
      "count": 3243,
      "max": [
        0.9972469806671143,
        0.9987789988517761,
        0.9999992251396179
      ],
      "min": [
        -0.9972470998764038,
        -0.9999997615814209,
        -0.9946866631507874
      ],
      "type": "VEC3"
    },
    {
      "bufferView": 3,
      "componentType": 5126,
      "count": 3243,
      "max": [
        1.0,
        0.9999611377716064,
        0.9875529408454895,
        1.0
      ],
      "min": [
        -0.9901067614555359,
        -0.9998893737792969,
        -0.8745967745780945,
        1.0
      ],
      "type": "VEC4"
    },
    {
      "bufferView": 1,
      "componentType": 5126,
      "count": 3243,
      "max": [
        0.9296380281448364,
        0.9186739921569824
      ],
      "min": [
        0.013794300146400928,
        0.00199202005751431
      ],
      "type": "VEC2"
    },
    {
      "bufferView": 0,
      "componentType": 5125,
      "count": 15132,
      "type": "SCALAR"
    },
    {
      "bufferView": 2,
      "byteOffset": 77832,
      "componentType": 5126,
      "count": 238,
      "max": [
        0.11553200334310532,
        0.33894601464271545,
        0.875635027885437
      ],
      "min": [
        -0.11662399768829346,
        0.22920599579811096,
        0.771265983581543
      ],
      "type": "VEC3"
    },
    {
      "bufferView": 2,
      "byteOffset": 80688,
      "componentType": 5126,
      "count": 238,
      "max": [
        1.0,
        1.0,
        0.9510568976402283
      ],
      "min": [
        -1.0,
        -1.0,
        -0.9510568976402283
      ],
      "type": "VEC3"
    },
    {
      "bufferView": 3,
      "byteOffset": 51888,
      "componentType": 5126,
      "count": 238,
      "max": [
        1.0,
        0.15448147058486938,
        1.0,
        1.0
      ],
      "min": [
        -1.0,
        -0.15448634326457977,
        -1.0,
        1.0
      ],
      "type": "VEC4"
    },
    {
      "bufferView": 1,
      "byteOffset": 25944,
      "componentType": 5126,
      "count": 238,
      "max": [
        1.0,
        1.0
      ],
      "min": [
        0.0,
        0.0
      ],
      "type": "VEC2"
    },
    {
      "bufferView": 0,
      "byteOffset": 60528,
      "componentType": 5125,
      "count": 1080,
      "type": "SCALAR"
    }
  ],
  "asset": {
    "extras": {
      "author": "Kugatsu Tsukai 3D Models Hub (https://sketchfab.com/KugatsuT)",
      "license": "CC-BY-4.0 (http://creativecommons.org/licenses/by/4.0/)",
      "source": "https://sketchfab.com/3d-models/dotted-white-seal-free-giveaway-676115a924214e8289b9e03fb9b9a4ab",
      "title": "Dotted White Seal - Free Giveaway"
    },
    "generator": "Sketchfab-12.68.0",
    "version": "2.0"
  },
  "bufferViews": [
    {
      "buffer": 0,
      "byteLength": 64848,
      "name": "floatBufferViews",
      "target": 34963
    },
    {
      "buffer": 0,
      "byteLength": 27848,
      "byteOffset": 64848,
      "byteStride": 8,
      "name": "floatBufferViews",
      "target": 34962
    },
    {
      "buffer": 0,
      "byteLength": 83544,
      "byteOffset": 92696,
      "byteStride": 12,
      "name": "floatBufferViews",
      "target": 34962
    },
    {
      "buffer": 0,
      "byteLength": 55696,
      "byteOffset": 176240,
      "byteStride": 16,
      "name": "floatBufferViews",
      "target": 34962
    }
  ],
  "buffers": [
    {
      "byteLength": 231936,
      "uri": "scene.bin"
    }
  ],
  "images": [
    {
      "uri": "textures/SealEyesTex_baseColor.jpeg"
    },
    {
      "uri": "textures/SealEyesTex_metallicRoughness.png"
    },
    {
      "uri": "textures/SealEyesTex_normal.png"
    },
    {
      "uri": "textures/SealBodyTex_baseColor.jpeg"
    },
    {
      "uri": "textures/SealBodyTex_metallicRoughness.png"
    },
    {
      "uri": "textures/SealBodyTex_normal.png"
    }
  ],
  "materials": [
    {
      "doubleSided": true,
      "name": "SealEyesTex",
      "normalTexture": {
        "index": 2
      },
      "pbrMetallicRoughness": {
        "baseColorTexture": {
          "index": 0
        },
        "metallicRoughnessTexture": {
          "index": 1
        }
      }
    },
    {
      "doubleSided": true,
      "name": "SealBodyTex",
      "normalTexture": {
        "index": 5
      },
      "pbrMetallicRoughness": {
        "baseColorTexture": {
          "index": 3
        },
        "metallicRoughnessTexture": {
          "index": 4
        }
      }
    }
  ],
  "meshes": [
    {
      "name": "defaultMaterial",
      "primitives": [
        {
          "attributes": {
            "NORMAL": 1,
            "POSITION": 0,
            "TANGENT": 2,
            "TEXCOORD_0": 3
          },
          "indices": 4,
          "material": 1,
          "mode": 4
        }
      ]
    },
    {
      "name": "defaultMaterial",
      "primitives": [
        {
          "attributes": {
            "NORMAL": 6,
            "POSITION": 5,
            "TANGENT": 7,
            "TEXCOORD_0": 8
          },
          "indices": 9,
          "material": 0,
          "mode": 4
        }
      ]
    }
  ],
  "nodes": [
    {
      "children": [
        1
      ],
      "matrix": [
        1.0,
        0.0,
        0.0,
        0.0,
        0.0,
        2.220446049250313e-16,
        -1.0,
        0.0,
        0.0,
        1.0,
        2.220446049250313e-16,
        0.0,
        0.0,
        0.0,
        0.0,
        1.0
      ],
      "name": "Sketchfab_model"
    },
    {
      "children": [
        2,
        4
      ],
      "matrix": [
        1.0,
        0.0,
        0.0,
        0.0,
        0.0,
        -4.371139006309477e-08,
        0.999999999999999,
        0.0,
        0.0,
        -0.999999999999999,
        -4.371139006309477e-08,
        0.0,
        0.0,
        0.0,
        0.0,
        1.0
      ],
      "name": "Collada visual scene group"
    },
    {
      "children": [
        3
      ],
      "name": "pSphere5"
    },
    {
      "mesh": 0,
      "name": "defaultMaterial"
    },
    {
      "children": [
        5
      ],
      "name": "pSphere5"
    },
    {
      "mesh": 1,
      "name": "defaultMaterial"
    }
  ],
  "samplers": [
    {
      "magFilter": 9729,
      "minFilter": 9987,
      "wrapS": 10497,
      "wrapT": 10497
    }
  ],
  "scene": 0,
  "scenes": [
    {
      "name": "Sketchfab_Scene",
      "nodes": [
        0
      ]
    }
  ],
  "textures": [
    {
      "sampler": 0,
      "source": 0
    },
    {
      "sampler": 0,
      "source": 1
    },
    {
      "sampler": 0,
      "source": 2
    },
    {
      "sampler": 0,
      "source": 3
    },
    {
      "sampler": 0,
      "source": 4
    },
    {
      "sampler": 0,
      "source": 5
    }
  ]
}
